<svg xmlns="http://www.w3.org/2000/svg" viewBox="526 60 355 452" fill="#1868DB" role="img" aria-label="shipnotes">
  <g transform="translate(0,768) scale(0.1,-0.1)">
    <path d="M6902 6985 c-169 -38 -340 -172 -414 -325 -89 -182 -87 -421 5 -542 46 -60 110 -90 192 -90 102 0 185 45 304 166 51 53 96 96 98 96 3 0 32 -25 66 -55 33 -30 64 -52 67 -48 6 7 50 374 50 417 0 14 -5 17 -22 13 -13 -3 -113 -26 -222 -52 -193 -46 -199 -49 -178 -65 11 -9 42 -36 67 -58 l47 -41 -21 -29 c-33 -47 -145 -147 -185 -166 -39 -18 -96 -24 -116 -11 -7 4 -21 27 -32 52 -23 51 -27 183 -8 254 74 273 380 413 638 292 79 -37 165 -122 206 -203 120 -241 22 -516 -228 -634 -40 -19 -76 -42 -80 -51 -3 -9 -6 -558 -6 -1219 l0 -1202 -45 -44 -45 -44 -45 44 -45 44 0 1212 0 1212 -31 27 c-20 16 -38 24 -48 20 -56 -23 -127 -45 -166 -51 -55 -8 -50 -18 31 -65 l54 -30 0 -145 0 -144 -260 0 -260 0 0 -80 0 -80 260 0 260 0 0 -876 0 -876 -52 32 c-29 17 -111 60 -183 96 -249 126 -379 232 -492 401 -53 79 -123 223 -123 252 0 7 53 11 158 11 l157 1 -37 32 c-20 18 -147 128 -282 245 l-246 213 0 -361 0 -361 60 47 c33 26 62 45 65 43 2 -3 16 -32 30 -64 47 -106 147 -245 246 -340 112 -108 189 -160 375 -253 76 -38 182 -98 234 -132 90 -59 235 -194 309 -285 l32 -40 31 40 c64 82 216 223 308 284 52 35 158 95 235 133 184 92 290 164 390 262 88 88 187 229 231 331 16 36 32 65 35 65 4 0 32 -20 63 -46 l56 -45 0 362 0 361 -72 -64 c-71 -62 -414 -360 -467 -405 l-26 -22 159 -1 158 0 -6 -27 c-14 -63 -108 -232 -173 -313 -97 -120 -205 -203 -387 -296 -83 -43 -179 -95 -214 -116 -34 -21 -65 -38 -67 -38 -3 0 -5 394 -5 875 l0 875 260 0 260 0 0 80 0 80 -260 0 -260 0 0 144 0 143 66 39 c90 53 195 166 238 258 93 194 85 416 -21 595 -73 124 -205 229 -343 272 -85 27 -242 34 -328 14z"/>
    <path d="M5829 6616 c-57 -20 -96 -53 -118 -99 -18 -38 -21 -62 -21 -189 l0 -146 -109 -4 c-103 -3 -112 -5 -152 -33 -23 -17 -53 -50 -66 -74 l-23 -44 0 -1621 c0 -1546 1 -1623 19 -1661 23 -52 81 -102 128 -111 21 -5 540 -8 1153 -8 l1115 0 72 22 c130 40 236 126 592 476 181 179 255 270 293 365 l23 56 3 1130 2 1130 -22 37 c-27 44 -521 648 -594 728 l-52 55 -166 3 c-91 2 -166 0 -166 -5 1 -4 9 -42 18 -83 l18 -75 66 -3 67 -3 3 -317 c4 -450 -19 -425 388 -432 l275 -5 3 -1014 c1 -682 -1 -1026 -8 -1052 -13 -49 -61 -104 -114 -132 -37 -19 -62 -22 -231 -27 -210 -6 -234 -12 -277 -72 -21 -30 -23 -46 -28 -188 l-5 -155 -1009 -3 c-891 -2 -1012 0 -1033 13 l-23 15 0 400 0 399 -49 76 -48 76 -32 -26 -31 -27 0 -461 c0 -428 2 -465 19 -503 25 -54 83 -101 143 -114 32 -6 388 -10 1038 -10 545 0 990 -4 990 -8 0 -4 -15 -22 -32 -40 -69 -66 6 -62 -1216 -62 -848 0 -1111 3 -1120 12 -9 9 -12 378 -12 1599 0 1430 2 1589 16 1603 11 12 36 16 95 16 l79 0 0 -478 0 -479 78 -65 77 -66 5 762 c3 418 6 762 8 764 1 1 102 2 225 2 l224 0 16 78 c9 42 17 81 17 85 0 13 -472 7 -511 -7z m2397 -423 c76 -93 167 -203 202 -245 l64 -78 -206 0 -206 0 0 245 c0 135 2 245 4 245 3 0 67 -75 142 -167z m129 -2914 c-22 -22 -93 -90 -157 -151 l-118 -110 0 151 0 151 157 0 157 0 -39 -41z"/>
  </g>
</svg>
